<svg width="105" height="100" viewBox="0 0 105 100" fill="none" xmlns="http://www.w3.org/2000/svg">
<circle cx="54.2922" cy="50" r="50" fill="#F5F5F5"/>
<mask id="mask0_4887_48470" style="mask-type:luminance" maskUnits="userSpaceOnUse" x="4" y="0" width="101" height="100">
<circle cx="54.2922" cy="50" r="50" fill="white"/>
</mask>
<g mask="url(#mask0_4887_48470)">
<path fill-rule="evenodd" clip-rule="evenodd" d="M63.0172 82.7405C56.5671 87.5433 49.52 83.3616 49.52 83.3616L55.7755 79.0002C55.7755 79.0002 59.527 79.1116 60.9556 76.7893C63.0572 73.371 63.3144 67.4172 63.4064 66.8095C63.533 65.9737 68.1666 65.5994 68.4038 67.1784L68.3199 69.2632C68.3199 69.2632 68.5238 78.6407 63.0172 82.7405Z" fill="white"/>
<path fill-rule="evenodd" clip-rule="evenodd" d="M50.8286 83.2639C52.8968 84.1721 57.9063 85.7136 62.6226 82.2C67.7813 78.3592 67.6561 69.368 67.6534 69.2768V69.2352L67.7374 67.1504C67.7374 67.1813 67.5668 67.0619 67.3149 66.968C66.2421 66.5709 64.5097 66.8083 64.0499 67.0579C64.0419 67.1343 64.0339 67.2323 64.0232 67.349C63.878 69.0004 63.4369 74.0259 61.5205 77.1424C60.1105 79.4364 56.8788 79.6551 55.9833 79.6699L50.8286 83.2639ZM56.1194 85.7012C52.2213 85.7012 49.2282 83.9653 49.1815 83.9384L48.2847 83.4058L55.5757 78.3227L55.7942 78.328C55.8275 78.324 59.1818 78.3978 60.3892 76.4351C62.1377 73.591 62.5588 68.8043 62.6961 67.2307C62.7187 66.9717 62.736 66.792 62.748 66.7074C62.9333 65.4786 65.3774 65.4155 65.8678 65.4155H65.8691C67.7389 65.4169 68.9036 66.0219 69.0635 67.0777L68.9862 69.2671C68.9982 69.8869 69.0582 79.078 63.413 83.2797C60.945 85.1177 58.3796 85.7012 56.1194 85.7012Z" fill="#999999"/>
<path fill-rule="evenodd" clip-rule="evenodd" d="M36.7758 87.3647C37.3275 86.0272 38.5522 81.8549 38.5522 81.8549L39.1213 78.1388C39.2332 77.4104 40.1861 76.317 39.4797 76.5128C38.299 76.8429 32.4673 77.5579 32.4673 85.0478C32.4673 91.9421 35.0926 97.959 35.0926 97.959" fill="white"/>
<path fill-rule="evenodd" clip-rule="evenodd" d="M35.0933 98.6307C34.8374 98.6307 34.5936 98.4818 34.4829 98.2295C34.3737 97.9787 31.8003 92.0034 31.8003 85.0487C31.8003 77.6165 37.1949 76.3608 38.9687 75.9489C39.1033 75.9167 39.2166 75.8912 39.3018 75.8671C39.8336 75.7142 40.1121 75.953 40.2334 76.1019C40.5839 76.5352 40.332 77.0316 40.0868 77.5118C39.9682 77.7439 39.8069 78.0605 39.7803 78.2417L39.2112 81.9564C39.1406 82.2167 37.9505 86.2669 37.3921 87.6218C37.2495 87.9653 36.8564 88.1289 36.5206 87.9841C36.1794 87.8419 36.0195 87.4501 36.1608 87.108C36.6925 85.8174 37.9012 81.7069 37.9132 81.6653L38.4623 78.0364C38.4956 77.8231 38.5689 77.6111 38.6582 77.4059C36.7045 77.921 33.133 79.3511 33.133 85.0487C33.133 91.7257 35.677 97.6312 35.7037 97.6902C35.8503 98.0297 35.6983 98.4254 35.3612 98.5743C35.2745 98.6119 35.1826 98.6307 35.0933 98.6307Z" fill="#999999"/>
<path fill-rule="evenodd" clip-rule="evenodd" d="M57.3085 84.5303C56.7542 90.6116 50.3454 106.761 44.3031 106.205C38.2608 105.646 34.8745 88.5939 35.4276 82.5112C35.982 76.4286 41.0328 75.1944 47.075 75.7525C52.4723 76.2502 57.8429 78.6529 57.3085 84.5303Z" fill="white"/>
<path fill-rule="evenodd" clip-rule="evenodd" d="M44.5762 76.2988C39.1909 76.2988 36.4776 78.3259 36.0912 82.572C35.5301 88.7378 38.9737 105.038 44.3643 105.535C44.4496 105.543 44.5349 105.547 44.6202 105.547C49.9508 105.547 56.0918 90.5368 56.6448 84.4676C57.2272 78.0603 50.1054 76.704 47.0137 76.4196C46.1488 76.3404 45.3358 76.2988 44.5762 76.2988ZM44.6042 106.889C44.4829 106.889 44.363 106.882 44.2417 106.871C37.4558 106.245 34.2508 88.0923 34.7638 82.4483C35.2742 76.85 39.4388 74.3802 47.1363 75.0832C54.4019 75.754 58.4519 79.3064 57.9721 84.5908C57.4671 90.1341 51.2555 106.889 44.6042 106.889Z" fill="#999999"/>
<path fill-rule="evenodd" clip-rule="evenodd" d="M47.03 84.4205L45.3788 84.2689C45.1882 84.2501 45.0509 84.0824 45.0669 83.8905L45.4268 79.941C45.4441 79.7518 45.612 79.611 45.7999 79.6284L47.4511 79.7814C47.6403 79.7988 47.7789 79.9665 47.7629 80.157L47.4031 84.1079C47.3858 84.297 47.2192 84.4379 47.03 84.4205Z" fill="#999999"/>
<path fill-rule="evenodd" clip-rule="evenodd" d="M40.202 78.7749L45.6646 80.7068L45.4434 83.1431L40.3246 84.6349C39.8129 84.7824 39.3064 84.3867 39.3291 83.8568L39.533 79.2217C39.5477 78.8876 39.8835 78.6623 40.202 78.7749ZM53.2764 80.002L47.5553 80.9035L47.2021 83.2191L52.097 85.7399C52.5741 85.9813 53.1445 85.6835 53.2178 85.159L53.8535 80.5628C53.8988 80.2314 53.6082 79.9497 53.2764 80.002Z" fill="#999999"/>
<path fill-rule="evenodd" clip-rule="evenodd" d="M52.0442 85.4084C51.7457 88.6818 48.2954 97.3738 45.0451 97.0733C41.7934 96.7741 39.9703 87.5965 40.2688 84.3218" fill="white"/>
<mask id="mask1_4887_48470" style="mask-type:luminance" maskUnits="userSpaceOnUse" x="20" y="26" width="54" height="69">
<path fill-rule="evenodd" clip-rule="evenodd" d="M24.2643 68.6053C22.6184 81.275 31.49 92.8889 44.0756 94.5444C56.6599 96.1985 68.1968 87.2704 69.8413 74.5994C70.7488 67.6032 76.314 54.2252 72.6399 43.4216C69.6587 34.6625 58.1738 27.6167 52.538 26.8775C52.0583 26.8144 51.5065 26.7822 50.8935 26.7822C43.5532 26.7822 27.504 31.2925 22.6464 39.5311C17.2758 48.6402 25.0945 62.2074 24.2643 68.6053Z" fill="white"/>
</mask>
<g mask="url(#mask1_4887_48470)">
<path fill-rule="evenodd" clip-rule="evenodd" d="M45.0157 97.4077C43.014 97.2226 41.7306 94.3154 41.007 91.9114C40.2221 89.3034 39.773 86.0997 39.9369 84.2926C39.9529 84.1075 40.1075 83.972 40.2994 83.9881C40.4819 84.0056 40.6179 84.1692 40.6006 84.353C40.466 85.8381 40.7805 88.8446 41.644 91.7168C42.5702 94.793 43.8203 96.6243 45.0756 96.7396C46.3643 96.8617 47.8902 95.284 49.3548 92.4265C50.7248 89.7622 51.5764 86.8631 51.7123 85.378C51.7296 85.1928 51.8882 85.0412 52.0734 85.0748C52.2573 85.0909 52.3933 85.2559 52.3759 85.4383C52.212 87.2468 51.1899 90.3149 49.9478 92.7364C48.8404 94.8936 47.1333 97.4171 45.2156 97.4171C45.1476 97.4171 45.081 97.4144 45.0157 97.4077Z" fill="#999999"/>
</g>
<path fill-rule="evenodd" clip-rule="evenodd" d="M56.0163 44.2124C68.6193 46.6017 70.7155 52.6052 70.3504 58.2826L70.1265 61.7506C69.6947 68.4651 65.8833 75.0025 46.7889 73.7562C28.6474 72.5729 25.5183 65.6733 25.9501 58.9615L26.1847 55.3191C26.5605 49.4659 29.6549 43.7884 42.5284 43.2344" fill="white"/>
<path fill-rule="evenodd" clip-rule="evenodd" d="M46.7463 74.4261C38.2492 73.8721 32.4308 72.0744 28.9592 68.9324C26.2113 66.4465 25.0106 63.1704 25.2851 58.9177L25.5196 55.2767C26.042 47.1911 31.5299 43.035 42.4991 42.5654L42.555 43.9056C42.3391 43.915 42.1246 43.9258 41.9154 43.9378C29.0379 44.6824 27.1441 50.7959 26.8496 55.3626L26.6151 59.0049C26.3699 62.8203 27.428 65.7422 29.8494 67.933C33.0452 70.8267 38.7583 72.5613 46.8302 73.0872C66.1671 74.3429 69.0763 67.6673 69.4615 61.7068L69.6854 58.2389C69.9772 53.6789 68.8671 47.332 55.8923 44.8716L56.1389 43.5528C66.8055 45.5759 71.5324 50.27 71.014 58.3261L70.7915 61.794C70.2784 69.7561 64.9824 73.8814 54.2785 74.5012C52.0116 74.6327 49.5035 74.6059 46.7463 74.4261Z" fill="#303A3F"/>
<path fill-rule="evenodd" clip-rule="evenodd" d="M56.0163 44.2124C68.6193 46.6017 70.7155 52.6052 70.3504 58.2826L70.1265 61.7506C69.6947 68.4651 65.8833 75.0025 46.7889 73.7562C28.6474 72.5729 25.5183 65.6733 25.9501 58.9615L26.1847 55.3191C26.5605 49.4659 29.6549 43.7884 42.5284 43.2344" fill="white"/>
<path fill-rule="evenodd" clip-rule="evenodd" d="M54.2785 74.5012C52.0116 74.6327 49.5035 74.6059 46.7463 74.4261C38.2492 73.8721 32.4308 72.0744 28.9592 68.9324C26.2113 66.4465 25.0106 63.1704 25.2851 58.9177L25.5196 55.2767C26.042 47.1911 31.5299 43.035 42.4991 42.5654L42.555 43.9056C42.3391 43.915 42.1246 43.9258 41.9154 43.9378C29.0379 44.6824 27.1441 50.7959 26.8496 55.3626L26.6151 59.0049C26.3699 62.8203 27.428 65.7422 29.8494 67.933C33.0452 70.8267 38.7583 72.5613 46.8302 73.0872C66.1671 74.3429 69.0763 67.6673 69.4615 61.7068L69.6854 58.2389C69.9772 53.6789 68.8671 47.332 55.8923 44.8716L56.1389 43.5528C66.8055 45.5759 71.5324 50.27 71.014 58.3261L70.7915 61.794C70.2784 69.7561 64.9824 73.8814 54.2785 74.5012Z" fill="#999999"/>
<path fill-rule="evenodd" clip-rule="evenodd" d="M56.9691 47.5323L54.3105 47.3592L54.537 43.8376C54.4624 42.7711 54.0879 42.2425 52.2395 41.9648C51.3426 41.8266 50.3271 41.722 49.2184 41.6495C48.2055 41.5838 47.278 41.5556 46.4611 41.5637C43.9757 41.5945 43.941 42.4639 43.9024 43.0394L43.6705 46.6656L41.0105 46.4926L41.2437 42.8663C41.3583 41.074 42.3671 38.9382 46.4331 38.8806C47.3167 38.8712 48.3108 38.902 49.3903 38.9718C50.5737 39.0496 51.6651 39.1636 52.6353 39.3099C53.7121 39.4722 56.9918 39.9672 57.2023 43.7652L57.201 43.9262L56.9691 47.5323Z" fill="#999999"/>
<path fill-rule="evenodd" clip-rule="evenodd" d="M42.3391 46.5781L42.5737 42.9532C42.7069 40.8563 44.3461 40.2432 46.4464 40.2217C47.2353 40.2137 48.1775 40.2365 49.3036 40.3103C50.5536 40.3935 51.5864 40.5075 52.4367 40.6349C54.4916 40.9462 55.7523 41.7082 55.8696 43.8399L55.6377 47.4447" fill="white"/>
<path fill-rule="evenodd" clip-rule="evenodd" d="M43.3066 46.6216L43.5052 43.5266C43.6211 41.737 45.0191 41.2138 46.8129 41.195C47.4859 41.1869 48.2908 41.2084 49.2516 41.2714C50.3191 41.3399 51.2013 41.4391 51.9276 41.5491C53.6801 41.8134 54.7582 42.4627 54.8568 44.2832L54.6596 47.3621" fill="#999999"/>
<path fill-rule="evenodd" clip-rule="evenodd" d="M48.5793 49.4615C34.3785 48.5358 31.2521 53.6619 30.9109 58.9691L30.7243 61.8548C30.3818 67.1714 32.8273 72.6329 47.0281 73.5599C61.9752 74.5353 64.9631 69.3555 65.3055 64.0376L65.4828 61.29C65.772 56.7931 64.1341 52.04 54.2698 50.1538C52.6146 49.8385 50.7289 49.6024 48.5793 49.4615Z" fill="#999999"/>
<path fill-rule="evenodd" clip-rule="evenodd" d="M43.1214 67.1783L40.8692 58.7668L39.3247 62.7083L38.8409 62.6761C38.8409 62.6761 35.1388 62.4346 35.0295 62.4279C34.6617 62.4011 34.3845 62.0818 34.4098 61.7128C34.4351 61.3412 34.7576 61.0675 35.1201 61.089C35.2041 61.0944 37.4349 61.2406 38.4424 61.3063L41.1078 54.502L43.4626 63.2972L44.2062 61.7048L54.6196 62.3836C54.9874 62.4078 55.266 62.7271 55.242 63.096C55.218 63.4663 54.9048 63.7547 54.5343 63.7225L45.0285 63.1013L43.1214 67.1783Z" fill="white"/>
<path fill-rule="evenodd" clip-rule="evenodd" d="M61.5777 64.1191C61.5497 64.1218 61.5231 64.1218 61.4951 64.1191L58.1288 63.8991C57.7623 63.8749 57.4838 63.557 57.5064 63.1867C57.5317 62.8164 57.8569 62.5294 58.2154 62.5615L61.5817 62.7802C61.9482 62.8057 62.228 63.1237 62.204 63.4926C62.1814 63.8347 61.9095 64.1003 61.5777 64.1191Z" fill="white"/>
<path fill-rule="evenodd" clip-rule="evenodd" d="M56.8807 79.3291L54.5139 79.5706C54.5139 79.5706 55.68 82.2416 55.596 82.3127C55.5134 82.3811 55.9439 83.4987 55.9439 83.4987V84.0581L58.1707 83.9146L59.5674 82.6334V81.0678L56.8807 79.3291Z" fill="white"/>
<path fill-rule="evenodd" clip-rule="evenodd" d="M55.8498 78.7251C55.8498 78.7251 55.2302 79.6535 56.147 82.4211L55.8498 78.7251Z" fill="white"/>
<path fill-rule="evenodd" clip-rule="evenodd" d="M56.1466 83.0914C55.8681 83.0914 55.6082 82.913 55.5136 82.6326C54.5447 79.7026 55.1631 78.5515 55.2964 78.3517C55.5043 78.0418 55.92 77.9639 56.2212 78.1679C56.5171 78.3678 56.6037 78.7662 56.4211 79.0707C56.3931 79.1324 56.0413 79.9816 56.7796 82.2086C56.8955 82.5601 56.7063 82.9398 56.3572 83.0578C56.2865 83.0806 56.2172 83.0914 56.1466 83.0914Z" fill="#999999"/>
</g>
<path fill-rule="evenodd" clip-rule="evenodd" d="M89.9137 71.2692C91.9852 74.1203 91.3057 78.145 88.396 80.2591C85.4862 82.3731 81.4486 81.7756 79.3771 78.9245C77.3056 76.0733 77.985 72.0486 80.8948 69.9346C83.8045 67.8205 87.8422 68.418 89.9137 71.2692Z" fill="white" stroke="#999999"/>
<path d="M87.1136 68.9652C90.2144 67.581 92.7902 67.3272 93.671 68.5396C94.9883 70.3526 92.0155 74.7582 87.0306 78.38C82.0456 82.0018 76.9366 83.4679 75.6193 81.6549C74.7325 80.4342 75.7906 78.0385 78.0977 75.4981" stroke="#999999"/>
<path fill-rule="evenodd" clip-rule="evenodd" d="M7.33936 42.2368L3.0647 46.6861L7.64469 50.8794L12.2247 46.6861L7.33936 42.2368Z" fill="white"/>
<path fill-rule="evenodd" clip-rule="evenodd" d="M7.69276 38.9929C7.67677 38.9921 7.66068 38.9917 7.64449 38.9917C7.13223 38.9917 6.71696 39.407 6.71696 39.9192C6.71696 40.1848 6.73092 40.447 6.75818 40.7055C6.36378 43.4853 3.90804 45.633 0.927532 45.633C0.41527 45.633 0 46.0483 0 46.5606C0 46.5734 0.000259778 46.5861 0.000774353 46.5988C0.000259778 46.6115 0 46.6242 0 46.6371C0 47.1493 0.41527 47.5646 0.927532 47.5646C3.90804 47.5646 6.36378 49.7124 6.75818 52.4922C6.73093 52.7506 6.71696 53.0129 6.71696 53.2784C6.71696 53.7907 7.13223 54.2059 7.64449 54.2059C7.66068 54.2059 7.67677 54.2055 7.69276 54.2047C7.70874 54.2055 7.72484 54.2059 7.74102 54.2059C8.25329 54.2059 8.66856 53.7907 8.66856 53.2784C8.66856 53.0129 8.65459 52.7506 8.62734 52.4922C9.02173 49.7124 11.4775 47.5646 14.458 47.5646C14.9702 47.5646 15.3855 47.1493 15.3855 46.6371C15.3855 46.6242 15.3853 46.6115 15.3847 46.5988C15.3853 46.5861 15.3855 46.5734 15.3855 46.5606C15.3855 46.0483 14.9702 45.633 14.458 45.633C11.4775 45.633 9.02173 43.4853 8.62734 40.7055C8.65459 40.447 8.66856 40.1848 8.66856 39.9192C8.66856 39.407 8.25329 38.9917 7.74102 38.9917C7.72484 38.9917 7.70874 38.9921 7.69276 38.9929ZM7.69276 43.6013C6.96884 44.8702 5.88243 45.9137 4.57121 46.5988C5.88243 47.2839 6.96884 48.3274 7.69276 49.5963C8.41667 48.3274 9.50309 47.2839 10.8143 46.5988C9.50309 45.9137 8.41667 44.8702 7.69276 43.6013Z" fill="#999999"/>
<path fill-rule="evenodd" clip-rule="evenodd" d="M8.40917 30.2381C8.9095 31.6912 10.493 32.4635 11.9461 31.9632L22.8323 28.2148L25.0591 34.682C25.4483 35.8122 26.6799 36.4129 27.8101 36.0237C28.9402 35.6346 29.5409 34.403 29.1518 33.2728L26.9249 26.8056L29.3003 25.9877C30.4305 25.5985 31.0312 24.3669 30.642 23.2367C30.2529 22.1066 29.0213 21.5059 27.8911 21.895L25.5157 22.7129L20.9137 9.34778C20.6448 8.56667 20.0426 7.94545 19.2703 7.65225C17.8336 7.10684 16.2267 7.8294 15.6813 9.26614L8.43871 28.3446C8.20779 28.9529 8.19734 29.6229 8.40917 30.2381ZM13.6567 26.7961L18.2122 14.7958L21.4234 24.1218L13.6567 26.7961Z" fill="#999999"/>
<path fill-rule="evenodd" clip-rule="evenodd" d="M59.0646 20.3889C58.6153 21.8586 59.4424 23.4142 60.9121 23.8635L71.9224 27.2297L69.9226 33.7707C69.5732 34.9138 70.2165 36.1237 71.3596 36.4732C72.5026 36.8226 73.7125 36.1793 74.062 35.0362L76.0618 28.4952L78.4643 29.2298C79.6073 29.5792 80.8172 28.9359 81.1667 27.7928C81.5162 26.6498 80.8728 25.4399 79.7298 25.0904L77.3273 24.3559L81.46 10.8383C81.7016 10.0483 81.5796 9.19177 81.1271 8.5006C80.2853 7.21485 78.5606 6.85493 77.2749 7.69669L60.2015 18.8744C59.6571 19.2308 59.2548 19.7667 59.0646 20.3889ZM65.3327 20.6891L76.0718 13.6583L73.1881 23.0907L65.3327 20.6891Z" fill="#999999"/>
<path fill-rule="evenodd" clip-rule="evenodd" d="M42.9905 3.03689C37.0406 3.77069 33.3288 10.6298 34.2453 18.1277C35.162 25.6271 40.418 31.3834 46.3704 30.6493C52.3203 29.9155 56.0321 23.0564 55.1156 15.5585C54.1989 8.05912 48.9428 2.3028 42.9905 3.03689ZM43.5202 7.33304C46.7213 6.93825 50.1615 10.7059 50.8189 16.0839C51.4764 21.4633 49.0439 25.9585 45.8404 26.3536C42.6392 26.7484 39.199 22.9807 38.5416 17.6027C37.8841 12.2233 40.3167 7.72812 43.5202 7.33304Z" fill="#999999"/>
<path fill-rule="evenodd" clip-rule="evenodd" d="M86.5423 34.7457C85.5856 34.1032 85.2298 32.8035 85.7391 31.7881L91.7505 19.7625C92.4904 18.2898 94.2796 17.8342 95.674 18.7654C97.0649 19.7007 97.4877 21.6405 96.5974 23.0141L89.3433 34.2043C88.7313 35.1519 87.5013 35.3874 86.5423 34.7457Z" fill="#999999"/>
<path fill-rule="evenodd" clip-rule="evenodd" d="M86.0534 39.6042C85.3901 40.6769 83.9807 41.0061 82.9047 40.3417C81.8334 39.6755 81.5044 38.2664 82.17 37.1929C82.8342 36.1225 84.2437 35.7933 85.3164 36.4563C86.3877 37.1225 86.7191 38.5307 86.0534 39.6042Z" fill="#999999"/>
</svg>
